<svg width="90px" height="86" style="float:left;padding-right:.2em" version="1.1" viewBox="0 0 647 647" xmlns="http://www.w3.org/2000/svg">
  <defs>
  <mask id="scar">
  <rect width="100%" height="100%" fill="#FFF"/>
  <path d="m-8 458 220-193 199 158 129-40 68 61" fill="none" stroke="#000" stroke-width="70"/>
  </mask>
  <filter id="s">
  <feOffset result="offset" in="SourceAlpha" dx="16" dy="28"/>
  <feFlood result="f" flood-color="#404040"/>
  <feComposite result="x" in2="offset" in="f" operator="in"/>
  <feTurbulence baseFrequency='0.035' result='noise' />
  <feDiffuseLighting in='noise' lighting-color='#FFF' surfaceScale='7' result="l2">
  <feDistantLight azimuth='45' elevation='60' />
  </feDiffuseLighting>
  <feBlend in2="x" in="SourceGraphic" result="y"/>
  <feBlend in2="y" in="l2" mode="multiply" result="z"/>
  <feComposite in="z" in2="y" operator="in"/>
  </filter>
  <filter id="s2">
  <feOffset result="offset" in="SourceAlpha" dx="10" dy="-10"/>
  <feFlood result="f" flood-color="#BBB"/>
  <feComposite result="x" in2="offset" in="f" operator="in"/>
  <feBlend in2="x" in="SourceGraphic"/>
  </filter>
  <filter id="s3">
  <feOffset result="offset" in="SourceAlpha" dx="-26" dy="-38"/>
  <feFlood result="f" flood-color="#999"/>
  <feComposite result="x" in2="offset" in="f" operator="in"/>
  <feGaussianBlur result="bx" in="x" stdDeviation="25"/>
  <feComposite in="bx" in2="SourceGraphic" operator="atop"/>
  </filter>
  </defs>
  <rect x="75" y="101" width="540" height="550" fill="#9c3"/>
  <g  filter="url(#s)"><g  filter="url(#s3)"><g  mask="url(#scar)"><g fill="#666">
  <ellipse cx="304" cy="194" rx="269.5" ry="182"/>
  <rect x="35" y="190" width="538" height="415"/>
  </g></g></g></g>
  <g transform="matrix(.7 0 0 .7 131 96)" fill="#444" filter="url(#s2)">
   <path d="m459 539 34 22 1 116-37 21 109 4 46-47-32-44 28-31-28-57zm65 18 34 1 10 28-21 22-28-3zm1 71 37 3 12 31-22 26-31-3z"/>
   <path d="m-73 249 33-30-24-159-38-12 110-23 67 39-22 75-58 26 32-49-0.5-39-55-10 37 176z"/>
   <path d="m88-15 121 2 0.9 43-21-28-42-0.3 0.8 54 31 0.2 17-14-0.2 46-17-14-31-0.1-0.8 48 45 3 19-27 0.1 49-110 0.4 14-141z"/>
   <path d="m373-10-34 23-69 114-42 16 88 16-19-24 15-31 49 5 5 33-26 17 81 9-22-24zm-22 42 10 47-34-5z"/>
   <path d="m357 526-30 28-42 122-39 22 88 3-22-21 9-31 41-5 19 33-22 21 79-3-25-21zm-16 45 16 45-34-0.1z"/>
   <path d="m401 212 37-10 32-112-22-27 82 24-32 14-16 51 71-41-11-19 76 19-105 50 64 102-80-20 17-14-35-58-20 63z"/>
   <path d="m66 520-67-74-77 101 108 79-29 51-65-31-9 46 80 21 55-43 10-63-96-72 26-41z"/>
   <path d="m84 535 100-1-36 25 3 115 55 1 27-34-7 57-149 3 40-33-0.03-115z"/>
  </g>
</svg>
